<svg width="20" height="20" viewBox="0 0 20 20" fill="none" xmlns="http://www.w3.org/2000/svg">
<path d="M9.99994 19.167C9.88828 19.167 9.78078 19.122 9.70327 19.0428L1.52994 10.7337C-0.506725 8.66449 -0.506725 5.29616 1.52994 3.22533C2.51827 2.22033 3.83411 1.66699 5.23244 1.66699C6.63161 1.66699 7.94661 2.22033 8.93494 3.22533L9.99994 4.30866L11.0649 3.22533C12.0533 2.22033 13.3683 1.66699 14.7674 1.66699C16.1658 1.66699 17.4808 2.22033 18.4691 3.22533C20.5058 5.29533 20.5058 8.66366 18.4691 10.7337L10.2966 19.0428C10.2191 19.122 10.1116 19.167 9.99994 19.167ZM5.23244 2.50033C4.05911 2.50033 2.95494 2.96616 2.12411 3.80949C0.404941 5.55783 0.404941 8.40199 2.12411 10.1487L9.99994 18.1562L17.8758 10.1495C19.5949 8.40199 19.5949 5.55783 17.8758 3.81033C17.0449 2.96616 15.9408 2.50033 14.7674 2.50033C13.5933 2.50033 12.4899 2.96616 11.6591 3.80949L10.2966 5.19449C10.1399 5.35366 9.85911 5.35366 9.70244 5.19449L8.33994 3.80949C7.50994 2.96616 6.40661 2.50033 5.23244 2.50033Z" fill="black"/>
</svg>
